#!OML:ASF I:\golf\golf\golf 2\Subject 1\2002-09-07\Subject1.ASF
:FULLY-SPECIFIED
:DEGREES
276
root -7.76381 17.9857 0.568473 -145.072 86.8891 -165.817
lowerback 3.09162 -9.26616 -0.993501
upperback 5.44877 -12.3587 7.32104
thorax 5.91622 -6.3654 7.86801
lowerneck -14.0493 9.81432 7.1011
upperneck 21.5697 16.974 -17.5677
head 11.6312 6.65744 -4.9451
rclavicle 2.80286e-014 1.78906e-015
rhumerus 9.43861 -14.2807 -69.8377
rradius 95.2658
rwrist -24.2101
rhand -65.4275 48.613
rfingers 7.12502
rthumb -37.3019 22.6272
lclavicle 2.80286e-014 1.78906e-015
lhumerus 84.8238 -57.4686 60.5689
lradius 22.8004
lwrist -10.7379
lhand 153.125 186.465
lfingers 7.12502
lthumb -180.299 216.445
rfemur -34.538 -3.34422 11.0667
rtibia 31.4797
rfoot -8.37487 -10.7108
rtoes -11.6209
lfemur -33.3797 7.4124 -12.2362
ltibia 23.8769
lfoot -5.76101 1.24379
ltoes -12.4007
277
root -7.75834 17.9851 0.497064 -157.854 84.3534 -178.287
lowerback 2.59351 -9.26631 -0.413883
upperback 5.5816 -12.3637 7.59221
thorax 6.28057 -6.33699 7.75785
lowerneck -14.4981 8.94328 7.285
upperneck 22.1057 15.7606 -17.4977
head 11.7467 6.09299 -5.17537
rclavicle 1.11916e-013 5.1684e-015
rhumerus 7.60995 -13.7239 -70.312
rradius 94.4371
rwrist -25.413
rhand -65.901 47.8234
rfingers 7.12502
rthumb -37.7495 21.9564
lclavicle 1.11916e-013 5.1684e-015
lhumerus 83.5672 -58.4634 60.5527
lradius 22.3533
lwrist -10.2778
lhand 153.511 187.362
lfingers 7.12502
lthumb -179.926 217.342
rfemur -33.5503 -3.97938 10.3096
rtibia 31.9131
rfoot -8.63567 -12.2542
rtoes -10.8088
lfemur -33.5493 6.50092 -12.8792
ltibia 23.4501
lfoot -5.58184 -0.986061
ltoes -13.1689
278
root -7.75344 17.986 0.427597 -162.296 81.623 -182.451
lowerback 2.00547 -9.24779 0.201574
upperback 5.64418 -12.3546 7.90284
thorax 6.6211 -6.29617 7.66455
lowerneck -14.8086 8.03568 7.50906
upperneck 22.6247 14.4835 -17.443
head 11.8193 5.5156 -5.43596
rclavicle -5.56597e-014 4.21423e-014
rhumerus 5.49713 -12.8936 -70.9782
rradius 93.5844
rwrist -26.5169
rhand -66.638 45.7009
rfingers 7.12502
rthumb -38.4453 20.0243
lclavicle -5.56597e-014 4.21423e-014
lhumerus 82.3047 -59.5491 60.2706
lradius 21.9606
lwrist -9.40306
lhand 153.048 188.593
lfingers 7.12502
lthumb -180.374 218.572
rfemur -32.5203 -4.52193 9.62436
rtibia 32.3805
rfoot -8.99314 -13.7952
rtoes -9.27358
lfemur -33.6922 5.58632 -13.4315
ltibia 22.9722
lfoot -5.33686 -3.37083
ltoes -13.9645
279
root -7.74949 17.9857 0.358027 -164.608 78.7926 -184.458
lowerback 1.50687 -9.22325 0.796957
upperback 5.5915 -12.334 8.31312
thorax 6.81592 -6.25014 7.7149
lowerneck -15.1593 7.06157 7.47788
upperneck 23.2343 13.1749 -17.3265
head 11.9029 4.90854 -5.63603
rclavicle 1.51076e-014 7.95139e-016
rhumerus 3.35206 -12.0638 -71.4399
rradius 92.7273
rwrist -28.7949
rhand -66.9327 46.9244
rfingers 7.12502
rthumb -38.7234 21.3257
lclavicle 1.51076e-014 7.95139e-016
lhumerus 79.7909 -60.6371 61.3394
lradius 21.5705
lwrist -8.99626
lhand 153.274 190.025
lfingers 7.12502
lthumb -180.156 220.004
rfemur -31.3935 -5.11557 8.98375
rtibia 32.8376
rfoot -9.39062 -15.1697
rtoes -8.42117
lfemur -33.7375 4.62917 -13.9652
ltibia 22.409
lfoot -4.97011 -5.79573
ltoes -14.2992
280
root -7.73844 17.9852 0.287947 -166.357 75.8974 -185.802
lowerback 0.901974 -9.17313 1.36579
upperback 5.54423 -12.2914 8.72685
thorax 7.08251 -6.19163 7.7706
lowerneck -15.4255 5.99475 7.26674
upperneck 23.7792 11.7456 -17.135
head 11.9084 4.2499 -5.79152
rclavicle -8.0309e-014 4.85035e-014
rhumerus 1.17882 -10.6811 -71.605
rradius 91.4511
rwrist -30.6961
rhand -67.6931 47.3141
rfingers 7.12502
rthumb -39.4402 21.9216
lclavicle -8.0309e-014 4.85035e-014
lhumerus 75.5471 -61.6104 64.422
lradius 20.9013
lwrist -9.5951
lhand 153.517 190.459
lfingers 7.12502
lthumb -179.921 220.439
rfemur -30.0339 -5.62704 8.27013
rtibia 33.2641
rfoot -10.0614 -16.4021
rtoes -6.43732
lfemur -33.5693 3.84322 -14.6483
ltibia 21.7189
lfoot -4.53477 -8.40068
ltoes -13.5593
281
root -7.71908 17.99 0.214851 -167.621 73.0118 -186.562
lowerback 0.16284 -9.08929 1.92751
upperback 5.50342 -12.2218 9.12308
thorax 7.42826 -6.11577 7.79639
lowerneck -15.4748 4.87536 7.07115
upperneck 24.2359 10.2138 -16.9073
head 11.8218 3.56605 -5.9438
rclavicle -1.66979e-014 -1.43125e-014
rhumerus -1.01112 -9.1669 -71.9258
rradius 90.0995
rwrist -33.3541
rhand -68.0178 48.8869
rfingers 7.12502
rthumb -39.7459 23.5847
lclavicle -1.66979e-014 -1.43125e-014
lhumerus 71.2066 -62.455 67.393
lradius 20.2322
lwrist -10.2042
lhand 153.794 192.367
lfingers 7.12502
lthumb -179.654 222.347
rfemur -28.4378 -6.00673 7.57791
rtibia 33.6423
rfoot -11.5485 -17.4222
rtoes 0.0240936
lfemur -33.1496 3.19168 -15.3734
ltibia 20.9365
lfoot -4.05025 -11.0667
ltoes -12.2369
282
root -7.69546 17.9972 0.139538 -168.478 70.2257 -186.848
lowerback -0.6917 -8.95785 2.62866
upperback 5.47176 -12.1095 9.47325
thorax 7.80455 -6.00266 7.68976
lowerneck -15.4367 3.73029 6.84158
upperneck 24.6615 8.63976 -16.6387
head 11.7012 2.86971 -6.06841
rclavicle -4.85035e-014 6.36111e-015
rhumerus -3.12865 -7.67491 -72.7288
rradius 88.6557
rwrist -35.7061
rhand -68.325 49.2093
rfingers 7.12502
rthumb -40.0351 23.9939
lclavicle -4.85035e-014 6.36111e-015
lhumerus 68.1513 -63.3033 68.4421
lradius 19.884
lwrist -10.0685
lhand 154.209 192.604
lfingers 7.12502
lthumb -179.252 222.582
rfemur -26.7298 -6.19845 6.97035
rtibia 33.9702
rfoot -12.4714 -18.4987
rtoes 2.59124
lfemur -32.5085 2.59144 -16.0425
ltibia 20.0669
lfoot -3.58585 -13.6112
ltoes -10.9358
283
root -7.6721 18.004 0.0628626 -169.2 67.5127 -186.952
lowerback -1.5727 -8.75983 3.3258
upperback 5.4033 -11.9184 9.8923
thorax 8.16845 -5.84822 7.67476
lowerneck -15.4106 2.51682 6.27666
upperneck 25.1668 7.04711 -16.2508
head 11.6044 2.14581 -6.07929
rclavicle 4.29375e-014 -6.83819e-014
rhumerus -5.05604 -6.05274 -73.6474
rradius 86.9399
rwrist -37.888
rhand -68.7121 47.1201
rfingers 7.12502
rthumb -40.3992 22.0157
lclavicle 4.29375e-014 -6.83819e-014
lhumerus 65.9421 -64.2032 68.4429
lradius 19.7059
lwrist -9.60652
lhand 154.459 194.284
lfingers 7.12502
lthumb -179.011 224.262
rfemur -25.0058 -6.29199 6.43082
rtibia 34.273
rfoot -10.3102 -20.1522
rtoes -9.60358
lfemur -31.6792 1.96093 -16.6806
ltibia 19.0741
lfoot -2.99311 -15.9592
ltoes -9.41298
